<svg xmlns="http://www.w3.org/2000/svg" viewBox="0 0 496 496">
    <defs>
        <style>
            .cls-1 {
                fill: #ffffff;
            }
        </style>
    </defs>
    <g id="Layer_2" data-name="Layer 2">
        <g id="Layer_1-2" data-name="Layer 1">
            <path class="cls-1"
                d="M0,248C0,111,111,0,248,0S496,111,496,248,385,496,248,496,0,385,0,248Zm143.6,28.9L216,201.4V384a23.94,23.94,0,0,0,24,24h16a23.94,23.94,0,0,0,24-24V201.4l72.4,75.5a24,24,0,0,0,34.3.4l10.9-11a23.9,23.9,0,0,0,0-33.9L265,99.7a23.9,23.9,0,0,0-33.9,0L98.3,232.4a23.9,23.9,0,0,0,0,33.9l10.9,11A24.15,24.15,0,0,0,143.6,276.9Z" />
        </g>
    </g>
</svg>