<svg xmlns="http://www.w3.org/2000/svg" viewBox="0 0 496 496">
    <defs>
        <style>
            .cls-1 {
                fill: #ffffff;
            }
        </style>
    </defs>
    <g id="Layer_2" data-name="Layer 2">
        <g id="Layer_1-2" data-name="Layer 1">
            <path class="cls-1"
                d="M496,248c0,137-111,248-248,248S0,385,0,248,111,0,248,0,496,111,496,248ZM352.4,219.1,280,294.6V112a23.94,23.94,0,0,0-24-24H240a23.94,23.94,0,0,0-24,24V294.6l-72.4-75.5a24,24,0,0,0-34.3-.4l-10.9,11a23.9,23.9,0,0,0,0,33.9L231,396.3a23.9,23.9,0,0,0,33.9,0L397.6,263.6a23.9,23.9,0,0,0,0-33.9l-10.9-11a24,24,0,0,0-34.3.4Z" />
        </g>
    </g>
</svg>