<svg xmlns="http://www.w3.org/2000/svg" viewBox="0 0 448 448"><defs><style>.cls-1{fill:#fff;}</style></defs><g id="Layer_2" data-name="Layer 2"><g id="Layer_1-2" data-name="Layer 1"><path class="cls-1" d="M186.5,261c0,19.3-14,25.4-31.2,25.4H110.2V233.5h46c18.6.1,30.3,7.8,30.3,27.5Zm-7.7-82.3c0-17.7-13.7-21.9-28.9-21.9H110.3v44.8H153c15.1,0,25.8-6.6,25.8-22.9Zm132.3,23.2c-18.3,0-30.5,11.4-31.7,29.7h62.2c-1.7-18.5-11.3-29.7-30.5-29.7ZM448,48V400a48,48,0,0,1-48,48H48A48,48,0,0,1,0,400V48A48,48,0,0,1,48,0H400A48,48,0,0,1,448,48ZM271.7,153h77.8V134.1H271.7Zm-43,110.3c0-24.1-11.4-44.9-35-51.6,17.2-8.2,26.2-17.7,26.2-37,0-38.2-28.5-47.5-61.4-47.5H68v192h93.1C196,319,228.7,302.3,228.7,263.3ZM380,248.5c0-41.1-24.1-75.4-67.6-75.4-42.4,0-71.1,31.8-71.1,73.6,0,43.3,27.3,73,71.1,73,33.2,0,54.7-14.9,65.1-46.8H343.8c-3.7,11.9-18.6,18.1-30.2,18.1-22.4,0-34.1-13.1-34.1-35.3H379.7c.1-2.3.3-4.8.3-7.2Z"/></g></g></svg>