<svg xmlns="http://www.w3.org/2000/svg" viewBox="0 0 639.9 277.9"><defs><style>.cls-1{fill:#fff;}</style></defs><g id="Layer_2" data-name="Layer 2"><g id="Layer_1-2" data-name="Layer 1"><path class="cls-1" d="M111.4,139.2l5.8,65-5.8,68.3a4.72,4.72,0,0,1-4.4,4.4,4.34,4.34,0,0,1-4.2-4.4l-5.6-68.3,5.6-65A4.29,4.29,0,0,1,107,135,4.79,4.79,0,0,1,111.4,139.2Zm21.4-45.6c-2.8,0-4.7,2.2-5,5l-5,105.6,5,68.3c.3,2.8,2.2,5,5,5a4.9,4.9,0,0,0,4.7-5l5.8-68.3L137.5,98.6A4.9,4.9,0,0,0,132.8,93.6Zm25.5-24.1a5.53,5.53,0,0,0-5.6,5.3l-4.4,130,4.4,67.8a5.53,5.53,0,0,0,5.6,5.3,5.27,5.27,0,0,0,5.3-5.3l5.3-67.8-5.3-130a5.27,5.27,0,0,0-5.3-5.3ZM7.2,166.1c-1.4,0-2.2,1.1-2.5,2.5L0,204.2l4.7,35c.3,1.4,1.1,2.5,2.5,2.5s2.2-1.1,2.5-2.5l5.6-35L9.7,168.6c-.3-1.4-1.1-2.5-2.5-2.5Zm23.6-21.9a2.48,2.48,0,0,0-2.5,2.5l-6.4,57.5,6.4,56.1a2.56,2.56,0,0,0,2.5,2.8,3,3,0,0,0,2.8-2.5l7.2-56.4-7.2-57.5A3,3,0,0,0,30.8,144.2Zm25.3-11.4a3.47,3.47,0,0,0-3.3,3.3L47,204.2,52.8,270a3.61,3.61,0,0,0,3.3,3.1,3.12,3.12,0,0,0,3.1-3.1l6.9-65.8-6.9-68.1a3.16,3.16,0,0,0-3.1-3.3Zm25.3-2.2a3.52,3.52,0,0,0-3.6,3.6l-5.8,70L77.8,272a3.52,3.52,0,0,0,3.6,3.6,4,4,0,0,0,3.9-3.6l6.4-67.8-6.4-70a4,4,0,0,0-3.9-3.6ZM322.8,19.7a7.81,7.81,0,0,0-4.2-1.4,9.2,9.2,0,0,0-5.6,1.9,10.25,10.25,0,0,0-3.3,6.7v.8l-3.3,176.7,1.7,32.5,1.7,31.7a9.14,9.14,0,0,0,8.9,8.6,8.66,8.66,0,0,0,8.6-8.6l3.9-64.2L327.3,26.9a9.63,9.63,0,0,0-4.5-7.2ZM296.1,35a8.79,8.79,0,0,0-4.4-1.4,8.49,8.49,0,0,0-4.4,1.4,7.9,7.9,0,0,0-3.6,6.7l-.3,1.7-2.8,160.8s0,.3,3.1,65.6v.3a7.54,7.54,0,0,0,1.7,4.7,8.57,8.57,0,0,0,6.4,3.1,8.11,8.11,0,0,0,5.6-2.5,6.89,6.89,0,0,0,2.5-5.6l.3-6.7,3.1-58.6L300,41.7a9,9,0,0,0-3.9-6.7ZM184.7,57.5a6.07,6.07,0,0,0-5.8,6.1l-4.4,140.6,4.4,67.2a6,6,0,0,0,11.9,0l5-67.2-5-140.6a6.26,6.26,0,0,0-6.1-6.1Zm376.7,62.8a80.31,80.31,0,0,0-30.6,6.1C524.4,55.6,465,0,392.5,0a136.37,136.37,0,0,0-50.3,9.4c-6.1,2.2-7.8,4.4-7.8,9.2V268.3c0,5,3.9,8.6,8.6,9.2H561.3c43.3,0,78.6-35,78.6-78.3a78.66,78.66,0,0,0-78.5-78.9ZM264.7,60c-4.2,0-7.5,3.3-7.8,7.8l-3.3,136.7,3.3,65.6a7.89,7.89,0,0,0,7.8,7.5,7.43,7.43,0,0,0,7.5-7.5l3.9-65.6L272.2,67.8c-.3-4.5-3.3-7.8-7.5-7.8Zm-53.6-7.8a6.78,6.78,0,0,0-6.4,6.7l-3.9,145.3,3.9,66.9a6.55,6.55,0,0,0,13.1,0l4.4-66.9L217.8,58.9C217.5,55.3,214.7,52.2,211.1,52.2Zm26.7,3.4a6.85,6.85,0,0,0-6.9,6.9L227,204.2l3.9,66.4c.3,3.9,3.1,6.9,6.9,6.9a6.91,6.91,0,0,0,6.9-6.9l4.2-66.4L244.7,62.5a6.79,6.79,0,0,0-6.9-6.9Z"/></g></g></svg>